<?xml version="1.0" encoding="UTF-8"?>
<svg id="Camada_1" data-name="Camada 1" xmlns="http://www.w3.org/2000/svg" xmlns:xlink="http://www.w3.org/1999/xlink" viewBox="0 0 3871.32 355.64">
  <defs>
    <style>
      .cls-1 {
        fill: url(#Gradiente_sem_nome_26-6);
      }

      .cls-2 {
        fill: url(#Gradiente_sem_nome_26-5);
      }

      .cls-3 {
        clip-path: url(#clippath-2);
      }

      .cls-4 {
        fill: url(#Gradiente_sem_nome_26-9);
      }

      .cls-5 {
        clip-path: url(#clippath-6);
      }

      .cls-6 {
        fill: url(#Gradiente_sem_nome_26-8);
      }

      .cls-7 {
        clip-path: url(#clippath-7);
      }

      .cls-8 {
        clip-path: url(#clippath-1);
      }

      .cls-9 {
        clip-path: url(#clippath-4);
      }

      .cls-10 {
        fill: url(#Gradiente_sem_nome_26-3);
      }

      .cls-11 {
        fill: url(#Gradiente_sem_nome_26);
      }

      .cls-12 {
        clip-path: url(#clippath);
      }

      .cls-13 {
        fill: none;
      }

      .cls-14 {
        clip-path: url(#clippath-3);
      }

      .cls-15 {
        clip-path: url(#clippath-8);
      }

      .cls-16 {
        fill: url(#Gradiente_sem_nome_26-2);
      }

      .cls-17 {
        fill: url(#Gradiente_sem_nome_26-4);
      }

      .cls-18 {
        clip-path: url(#clippath-5);
      }

      .cls-19 {
        fill: url(#Gradiente_sem_nome_26-7);
      }
    </style>
    <clipPath id="clippath">
      <path class="cls-13" d="m192.42,130.02l-19.47,19.19c-.69.68-1.79.67-2.47-.02l-18.67-18.96c-1.09-1.11-2.98-.34-2.99,1.21l-.21,27.33c0,.96-.8,1.74-1.76,1.73l-26.63-.21c-1.56-.01-2.35,1.86-1.26,2.97l19.17,19.47c.68.69.67,1.79-.02,2.47l-18.99,18.7c-1.11,1.09-.34,2.98,1.21,2.99l27.36.21c.96,0,1.74.8,1.73,1.76l-.21,26.63c-.01,1.56,1.86,2.35,2.97,1.26l19.5-19.2c.69-.68,1.79-.67,2.47.02l18.67,18.96c1.09,1.11,2.98.34,2.99-1.21l.21-27.33c0-.96.8-1.74,1.76-1.73l26.63.21c1.56.01,2.35-1.86,1.26-2.97l-19.2-19.5c-.68-.69-.67-1.79.02-2.47l18.96-18.67c1.11-1.09.34-2.98-1.21-2.99l-27.33-.21c-.96,0-1.74-.8-1.73-1.76l.21-26.62c0-1.06-.86-1.76-1.76-1.76-.43,0-.86.16-1.21.51"/>
    </clipPath>
    <linearGradient id="Gradiente_sem_nome_26" data-name="Gradiente sem nome 26" x1="-232.63" y1="704.29" x2="-231.89" y2="704.29" gradientTransform="translate(-637333.67 210426.62) rotate(90) scale(905.17 -905.17)" gradientUnits="userSpaceOnUse">
      <stop offset="0" stop-color="#36d1dc"/>
      <stop offset=".02" stop-color="#36d1dc"/>
      <stop offset="1" stop-color="#5b86e5"/>
      <stop offset="1" stop-color="#000"/>
    </linearGradient>
    <clipPath id="clippath-1">
      <path class="cls-13" d="m184.73,30.5l-27.96,27.53c-.69.68-.7,1.78-.02,2.47l35.92,36.48c1.09,1.11,2.98.34,2.99-1.21l.49-62.74c0-.21-.15-.4-.36-.44l-10.65-2.2s-.06,0-.09,0c-.12,0-.23.05-.32.13"/>
    </clipPath>
    <linearGradient id="Gradiente_sem_nome_26-2" data-name="Gradiente sem nome 26" x1="-232.63" y1="704.24" x2="-231.89" y2="704.24" gradientTransform="translate(-637280.55 210376.45) rotate(90) scale(905.17 -905.17)" xlink:href="#Gradiente_sem_nome_26"/>
    <clipPath id="clippath-2">
      <path class="cls-13" d="m248.19,85.48l-.4,51.2c-.01,1.56,1.86,2.35,2.97,1.26l43.97-43.27c.59-.58.69-1.51.23-2.21l-5.04-7.63c-.32-.49-.86-.78-1.44-.78l-38.54-.3h-.01c-.96,0-1.74.77-1.75,1.73"/>
    </clipPath>
    <linearGradient id="Gradiente_sem_nome_26-3" data-name="Gradiente sem nome 26" x1="-232.63" y1="704.25" x2="-231.89" y2="704.25" gradientTransform="translate(-637194.05 210319.15) rotate(90) scale(905.17 -905.17)" xlink:href="#Gradiente_sem_nome_26"/>
    <clipPath id="clippath-3">
      <path class="cls-13" d="m295.19,167.84l-36.48,35.92c-1.11,1.09-.34,2.98,1.21,2.99l62.74.48c.21,0,.4-.15.44-.36l2.2-10.65c.03-.15-.01-.3-.12-.41l-27.53-27.96c-.34-.35-.79-.52-1.24-.52s-.88.17-1.22.5"/>
    </clipPath>
    <linearGradient id="Gradiente_sem_nome_26-4" data-name="Gradiente sem nome 26" x1="-232.63" y1="704.28" x2="-231.89" y2="704.28" gradientTransform="translate(-637200.3 210333.48) rotate(90) scale(905.17 -905.17)" xlink:href="#Gradiente_sem_nome_26"/>
    <clipPath id="clippath-4">
      <path class="cls-13" d="m217.76,261.85l43.3,43.94c.58.59,1.51.69,2.2.23l7.6-5.01c.49-.32.78-.86.79-1.45l.3-38.54c0-.96-.77-1.75-1.73-1.76l-51.19-.4h-.02c-1.55,0-2.33,1.87-1.24,2.97"/>
    </clipPath>
    <linearGradient id="Gradiente_sem_nome_26-5" data-name="Gradiente sem nome 26" x1="-232.63" y1="704.29" x2="-231.89" y2="704.29" gradientTransform="translate(-637256.54 210408.76) rotate(90) scale(905.17 -905.17)" xlink:href="#Gradiente_sem_nome_26"/>
    <clipPath id="clippath-5">
      <path class="cls-13" d="m148.95,270.94l-.48,61.7c0,.83.58,1.55,1.39,1.72l8.96,1.85c.57.12,1.16-.06,1.58-.47l27.43-27.04c.69-.68.7-1.78.02-2.47l-35.92-36.51c-.36-.36-.8-.53-1.23-.53-.89,0-1.75.69-1.76,1.74"/>
    </clipPath>
    <linearGradient id="Gradiente_sem_nome_26-6" data-name="Gradiente sem nome 26" x1="-232.63" y1="704.35" x2="-231.89" y2="704.35" gradientTransform="translate(-637386.48 210476.88) rotate(90) scale(905.17 -905.17)" xlink:href="#Gradiente_sem_nome_26"/>
    <clipPath id="clippath-6">
      <path class="cls-13" d="m93.84,228.8l-43.94,43.3c-.59.59-.69,1.51-.23,2.21l5.01,7.6c.32.49.86.78,1.45.79l38.54.3c.96,0,1.75-.77,1.76-1.73l.4-51.2c0-1.06-.86-1.76-1.76-1.76-.42,0-.86.16-1.21.51"/>
    </clipPath>
    <linearGradient id="Gradiente_sem_nome_26-7" data-name="Gradiente sem nome 26" x1="-232.63" y1="704.34" x2="-231.89" y2="704.34" gradientTransform="translate(-637473.19 210534.21) rotate(90) scale(905.17 -905.17)" xlink:href="#Gradiente_sem_nome_26"/>
    <clipPath id="clippath-7">
      <path class="cls-13" d="m21.53,159.9l-2.2,10.65c-.03.15.01.3.12.41l27.53,27.96c.68.69,1.78.7,2.47.02l36.48-35.92c1.11-1.09.34-2.98-1.21-2.99l-62.74-.48h0c-.21,0-.4.15-.44.36"/>
    </clipPath>
    <linearGradient id="Gradiente_sem_nome_26-8" data-name="Gradiente sem nome 26" x1="-232.63" y1="704.31" x2="-231.89" y2="704.31" gradientTransform="translate(-637467.02 210519.98) rotate(90) scale(905.17 -905.17)" xlink:href="#Gradiente_sem_nome_26"/>
    <clipPath id="clippath-8">
      <path class="cls-13" d="m81.42,60.74l-7.63,5.01c-.49.32-.78.86-.79,1.45l-.3,38.54c0,.96.77,1.75,1.73,1.76l51.2.4c1.56.01,2.35-1.86,1.26-2.97l-43.27-43.94c-.34-.34-.79-.52-1.24-.52-.33,0-.67.09-.96.29"/>
    </clipPath>
    <linearGradient id="Gradiente_sem_nome_26-9" data-name="Gradiente sem nome 26" x1="-232.63" y1="704.3" x2="-231.89" y2="704.3" gradientTransform="translate(-637410.75 210444.73) rotate(90) scale(905.17 -905.17)" xlink:href="#Gradiente_sem_nome_26"/>
  </defs>
  <g class="cls-12">
    <rect class="cls-11" x="96.1" y="107.24" width="152.45" height="152.49" transform="translate(-78.03 209.71) rotate(-52.78)"/>
  </g>
  <g class="cls-8">
    <rect class="cls-16" x="137.04" y="27.79" width="78.16" height="72.87" transform="translate(18.44 165.61) rotate(-52.78)"/>
  </g>
  <g class="cls-3">
    <rect class="cls-10" x="235.19" y="75.7" width="72.84" height="71.38" transform="translate(18.61 260.29) rotate(-52.78)"/>
  </g>
  <g class="cls-14">
    <rect class="cls-17" x="255.1" y="148.25" width="72.74" height="78.07" transform="translate(-33.97 306.09) rotate(-52.78)"/>
  </g>
  <g class="cls-9">
    <rect class="cls-2" x="208.63" y="246.27" width="71.35" height="72.82" transform="translate(-128.57 306.22) rotate(-52.78)"/>
  </g>
  <g class="cls-18">
    <rect class="cls-1" x="129.65" y="266.52" width="77.69" height="72.51" transform="translate(-174.52 253.8) rotate(-52.78)"/>
  </g>
  <g class="cls-5">
    <rect class="cls-19" x="36.84" y="220.14" width="72.36" height="71" transform="translate(-174.72 159.14) rotate(-52.78)"/>
  </g>
  <g class="cls-7">
    <rect class="cls-6" x="16.73" y="140.49" width="72.88" height="78.17" transform="translate(-121.99 113.29) rotate(-52.78)"/>
  </g>
  <g class="cls-15">
    <rect class="cls-4" x="64.73" y="47.82" width="71.23" height="72.73" transform="translate(-27.39 113.16) rotate(-52.78)"/>
  </g>
</svg>