<?xml version="1.0" encoding="UTF-8"?>
<svg xmlns="http://www.w3.org/2000/svg" xmlns:xlink="http://www.w3.org/1999/xlink" viewBox="0 0 340 340">
  <defs>
    <linearGradient id="grad1" x1="0%" y1="0%" x2="100%" y2="100%">
      <stop offset="0%" stop-color="#36d1dc"/>
      <stop offset="100%" stop-color="#5b86e5"/>
    </linearGradient>
  </defs>
  <!-- Estrela central -->
  <path fill="url(#grad1)" d="m192.42,130.02l-19.47,19.19c-.69.68-1.79.67-2.47-.02l-18.67-18.96c-1.09-1.11-2.98-.34-2.99,1.21l-.21,27.33c0,.96-.8,1.74-1.76,1.73l-26.63-.21c-1.56-.01-2.35,1.86-1.26,2.97l19.17,19.47c.68.69.67,1.79-.02,2.47l-18.99,18.7c-1.11,1.09-.34,2.98,1.21,2.99l27.36.21c.96,0,1.74.8,1.73,1.76l-.21,26.63c-.01,1.56,1.86,2.35,2.97,1.26l19.5-19.2c.69-.68,1.79-.67,2.47.02l18.67,18.96c1.09,1.11,2.98.34,2.99-1.21l.21-27.33c0-.96.8-1.74,1.76-1.73l26.63.21c1.56.01,2.35-1.86,1.26-2.97l-19.2-19.5c-.68-.69-.67-1.79.02-2.47l18.96-18.67c1.11-1.09.34-2.98-1.21-2.99l-27.33-.21c-.96,0-1.74-.8-1.73-1.76l.21-26.62c0-1.06-.86-1.76-1.76-1.76-.43,0-.86.16-1.21.51"/>
  <!-- Ponta superior -->
  <path fill="url(#grad1)" d="m184.73,30.5l-27.96,27.53c-.69.68-.7,1.78-.02,2.47l35.92,36.48c1.09,1.11,2.98.34,2.99-1.21l.49-62.74c0-.21-.15-.4-.36-.44l-10.65-2.2s-.06,0-.09,0c-.12,0-.23.05-.32.13"/>
  <!-- Ponta direita superior -->
  <path fill="url(#grad1)" d="m248.19,85.48l-.4,51.2c-.01,1.56,1.86,2.35,2.97,1.26l43.97-43.27c.59-.58.69-1.51.23-2.21l-5.04-7.63c-.32-.49-.86-.78-1.44-.78l-38.54-.3h-.01c-.96,0-1.74.77-1.75,1.73"/>
  <!-- Ponta direita -->
  <path fill="url(#grad1)" d="m295.19,167.84l-36.48,35.92c-1.11,1.09-.34,2.98,1.21,2.99l62.74.48c.21,0,.4-.15.44-.36l2.2-10.65c.03-.15-.01-.3-.12-.41l-27.53-27.96c-.34-.35-.79-.52-1.24-.52s-.88.17-1.22.5"/>
  <!-- Ponta direita inferior -->
  <path fill="url(#grad1)" d="m217.76,261.85l43.3,43.94c.58.59,1.51.69,2.2.23l7.6-5.01c.49-.32.78-.86.79-1.45l.3-38.54c0-.96-.77-1.75-1.73-1.76l-51.19-.4h-.02c-1.55,0-2.33,1.87-1.24,2.97"/>
  <!-- Ponta inferior -->
  <path fill="url(#grad1)" d="m148.95,270.94l-.48,61.7c0,.83.58,1.55,1.39,1.72l8.96,1.85c.57.12,1.16-.06,1.58-.47l27.43-27.04c.69-.68.7-1.78.02-2.47l-35.92-36.51c-.36-.36-.8-.53-1.23-.53-.89,0-1.75.69-1.76,1.74"/>
  <!-- Ponta esquerda inferior -->
  <path fill="url(#grad1)" d="m93.84,228.8l-43.94,43.3c-.59.59-.69,1.51-.23,2.21l5.01,7.6c.32.49.86.78,1.45.79l38.54.3c.96,0,1.75-.77,1.76-1.73l.4-51.2c0-1.06-.86-1.76-1.76-1.76-.42,0-.86.16-1.21.51"/>
  <!-- Ponta esquerda -->
  <path fill="url(#grad1)" d="m21.53,159.9l-2.2,10.65c-.03.15.01.3.12.41l27.53,27.96c.68.69,1.78.7,2.47.02l36.48-35.92c1.11-1.09.34-2.98-1.21-2.99l-62.74-.48h0c-.21,0-.4.15-.44.36"/>
  <!-- Ponta esquerda superior -->
  <path fill="url(#grad1)" d="m81.42,60.74l-7.63,5.01c-.49.32-.78.86-.79,1.45l-.3,38.54c0,.96.77,1.75,1.73,1.76l51.2.4c1.56.01,2.35-1.86,1.26-2.97l-43.27-43.94c-.34-.34-.79-.52-1.24-.52-.33,0-.67.09-.96.29"/>
</svg>